<?xml version="1.0" encoding="UTF-8"?><svg id="uuid-1331026c-e6db-45b4-be54-13a82fb26da0" xmlns="http://www.w3.org/2000/svg" width="100" height="100" viewBox="0 0 100 100"><g id="uuid-81725a53-7615-46b4-beff-f535366961a4"><path d="m69.46,67.85c1.19,0,2.36-.45,4.3-1.59l17.17-10.26c4.15-2.38,4.08-3.8,4.21-6.95l-.14-23.05c-.09-3.1-1.38-3.92-3.56-5.47l-17.92-11c-3.92-2.11-4.51-2-8.32,0s-12,7.27-18,10.79c-2.57,1.47-3.29,2.68-3.38,5.68l-.11,23c.19,3.08-.19,4.13,4.21,6.95l17.17,10.31c2,1,3.19,1.55,4.37,1.59Zm2.48,3.92c-1.6.6-3.36.57-4.94-.08-.87-.25-1.71-.59-2.51-1l-19.7-11.8c-2.91-1.63-4.75-4.67-4.83-8l.13-26.44c.26-2.63,1.78-4.97,4.08-6.28l21.39-12.17c3-1.44,4.45-1.85,7.4-.33,2.75,1.43,7.7,4.31,11.55,6.47l9.08,5.33,1.18.72c2.3,1.31,3.82,3.65,4.08,6.28l.15,26.43c-.08,3.33-1.92,6.37-4.83,8l-19.7,11.8c-.87.43-1.66.75-2.51,1.09l-.02-.02Z" style="fill:#1a1a1a; fill-rule:evenodd;"/><path d="m78.38,55.26c-.07,1.2-.31,1.9-2,1.05l-8.57-5-1.39-.8c-1.55-.77-1.69-1.35-1.69-2.07v-21.62l-8.9,5.18c-1.48.88-2.51.49-2.47-1.55-.06-3.11-.12-2.28-.12-5.33.13-2.06.84-1.93,2.45-3.14l10.65-6.36c1.72-1,2.41-1,4,0l10.66,6.38c1.61,1.21,2.32,1.08,2.45,3.14,0,3.05-.06,2.22-.12,5.33,0,1.53-.54,2.13-1.45,2-.35-.08-.69-.22-1-.42l-8.36-4.85.09,16c-.08,1.31.17,1.3.92,1.78,1.33.74,1.53.84,3.58,2,.83.43,1.21.36,1.28,2.19v6.16-.07Z" style="fill:#1a1a1a; fill-rule:evenodd;"/><path d="m22.58,52c-.23.18-.28.55-.31,1.07-.05,2.69-.1,2.69-.1,5.32.06,1.59.39,1.53,1.11,1.9l3.09,1.71c.65.42.87.49.86,1.6v13.78l-7.23-4.19c-.27-.18-.57-.3-.88-.37-.79-.14-1.28.38-1.26,1.71,0,2.68-.09,2-.09,4.6.11,1.78.72,1.67,2.11,2.71l9.2,5.5c.34.18.7.35,1.06.49l.67.08h0l.67-.08c.36-.14.72-.31,1.06-.49l9.2-5.5c1.39-1,2-.93,2.11-2.71,0-2.64,0-1.92-.09-4.6,0-1.77-.86-2.11-2.14-1.34l-7.62,4.46v-18.65c0-.62-.12-1.12-1.46-1.79l-1.2-.69-7.4-4.3c-.72-.3-1.12-.33-1.35-.16v-.06Zm8-10.54c-2.32,0-4.2,1.88-4.2,4.2s1.88,4.2,4.2,4.2,4.2-1.88,4.2-4.2-1.88-4.2-4.2-4.2c0,0,0,0,0,0Zm-5.03-12.71c4.62-2.25,5.28-2.49,9.94,0l19.7,11.81c2.91,1.63,4.75,4.67,4.83,8l-.13,26.44c-.26,2.63-1.78,4.97-4.08,6.27l-20.52,12.1c-.91.55-1.86,1.04-2.84,1.47-1.3.48-2.23,1.2-6.76-1.47l-20.4-12.06c-2.67-1.67-4.29-3.07-4.29-6.78v-26c.08-3.33,1.92-6.37,4.83-8l19.7-11.81.02.03Z" style="fill:#1a1a1a; fill-rule:evenodd;"/></g></svg>